<?xml version="1.0" encoding="utf-8"?>
<svg
  viewBox="0 0 24 24"
  xmlns="http://www.w3.org/2000/svg"
  fill="none"
  stroke="currentColor"
  stroke-width="1.8"
  stroke-linecap="round"
  stroke-linejoin="round"
>
  <!-- Keskireikä -->
  <path d="M16 12a4 4 0 11-8 0 4 4 0 018 0" />

  <!-- Hammasratas -->
  <path d="M12 1c-.268 0-.534.01-.797.028-.763.055-1.345.617-1.512 1.304l-.352 1.45c-.02.078-.09.172-.225.22a8.45 8.45 0 00-.728.303c-.13.06-.246.044-.315.002l-1.274-.776c-.604-.368-1.412-.354-1.99.147-.403.348-.78.726-1.129 1.128-.5.579-.515 1.387-.147 1.99l.776 1.275c.042.069.059.185-.002.315-.112.237-.213.48-.302.728-.05.135-.143.206-.221.225l-1.45.352c-.687.167-1.249.749-1.304 1.512a11.149 11.149 0 000 1.594c.055.763.617 1.345 1.304 1.512l1.45.352c.078.02.172.09.22.225.09.248.191.491.303.729.06.129.044.245.002.314l-.776 1.274c-.368.604-.354 1.412.147 1.99.348.403.726.78 1.128 1.129.579.5 1.387.515 1.99.147l1.275-.776c.069-.042.185-.059.315.002.237.112.48.213.728.302.135.05.206.143.225.221l.352 1.45c.167.687.749 1.249 1.512 1.303a11.125 11.125 0 001.594 0c.763-.054 1.345-.616 1.512-1.303l.352-1.45c.02-.078.09-.172.225-.22.248-.09.491-.191.729-.303.129-.06.245-.044.314-.002l1.274.776c.604.368 1.412.354 1.99-.147.403-.348.78-.726 1.129-1.128.5-.579.515-1.387.147-1.99l-.776-1.275c-.042-.069-.059-.185.002-.315.112-.237.213-.48.302-.728.05-.135.143-.206.221-.225l1.45-.352c.687-.167 1.249-.749 1.303-1.512a11.125 11.125 0 000-1.594c-.054-.763-.616-1.345-1.303-1.512l-1.45-.352c-.078-.02-.172-.09-.22-.225a8.469 8.469 0 00-.303-.728c-.06-.13-.044-.246-.002-.315l.776-1.274c.368-.604.354-1.412-.147-1.99-.348-.403-.726-.78-1.128-1.129-.579-.5-1.387-.515-1.99-.147l-1.275.776c-.069.042-.185.059-.315-.002a8.465 8.465 0 00-.728-.302c-.135-.05-.206-.143-.225-.221l-.352-1.45c-.167-.687-.749-1.249-1.512-1.304A11.149 11.149 0 0012 1z"/>
</svg>