<?xml version="1.0" encoding="UTF-8"?>
<svg id="Capa_1" data-name="Capa 1" xmlns="http://www.w3.org/2000/svg" viewBox="0 0 54 54">
  <circle cx="27" cy="27" r="27" fill="#ffffff"/>
  <path d="M27,0C12.09,0,0,12.09,0,27s12.09,27,27,27,27-12.09,27-27S41.91,0,27,0ZM27,51.15c-13.34,0-24.15-10.81-24.15-24.15S13.66,2.85,27,2.85s24.15,10.81,24.15,24.15-10.81,24.15-24.15,24.15Z"/>
  <path d="M14.92,36.24v-.57c.12-.67.54-1.14,1.01-1.6,2.3-2.28,4.58-4.57,6.87-6.86.07-.07.15-.11.24-.17-.11-.12-.17-.18-.23-.24-2.3-2.3-4.6-4.6-6.9-6.9-.46-.46-.87-.93-.99-1.59v-.57c.12-.67.52-1.16,1-1.6.19-.17.37-.37.55-.55.08-.08.16-.15.24-.22.87-.69,2.04-.6,2.86.22,2.4,2.4,4.8,4.8,7.2,7.2.07.07.11.15.17.24.12-.11.18-.17.24-.23,1.85-1.85,3.7-3.7,5.55-5.55.59-.59,1.17-1.19,1.77-1.76.76-.73,1.93-.8,2.73-.13.49.41.95.87,1.36,1.36.71.85.59,2.03-.23,2.85-2.4,2.4-4.8,4.8-7.2,7.2-.06.06-.13.13-.21.22.09.08.17.14.24.2,2.39,2.39,4.78,4.78,7.17,7.17.94.94.93,2.2,0,3.14-.19.19-.39.37-.56.57-.43.48-.92.85-1.57.97h-.57c-.54-.12-.99-.39-1.39-.79-2.36-2.38-4.74-4.75-7.11-7.12-.05-.05-.11-.1-.18-.17-.07.07-.13.12-.19.18-2.31,2.3-4.62,4.61-6.91,6.92-.45.45-.92.85-1.57.97h-.57c-.59-.12-1.07-.42-1.46-.87-.11-.13-.24-.25-.36-.37-.49-.44-.88-.93-1-1.6Z"/>
</svg>