<?xml version="1.0" encoding="UTF-8"?>
<svg id="Capa_1" data-name="Capa 1" xmlns="http://www.w3.org/2000/svg" viewBox="0 0 54 54">
  <defs>
    <style>
      .cls-1 {
        fill: #fff;
      }
    </style>
  </defs>
  <circle cx="27" cy="27" r="27" fill="#ffffff"/>
  <path d="M27,0C12.09,0,0,12.09,0,27s12.09,27,27,27,27-12.09,27-27S41.91,0,27,0ZM27.2,16.04c-3.37,2.57-5.13,4.94-6.54,6.85-2.3,3.11-3.57,4.82-9.57,4.82-4.03,0-6.56.59-8.15,1.3-.05-.67-.09-1.34-.09-2.02C2.85,13.66,13.66,2.85,27,2.85c8.88,0,16.63,4.79,20.83,11.92-4.75-1.61-14.06-3.73-20.62,1.27Z"/>
  <path class="cls-1" d="M6.45,39.68c.33.53.68,1.05,1.05,1.56l1.46-1.56h-2.51Z"/>
  <path class="cls-1" d="M28.18,17.32c-3.19,2.43-4.87,4.7-6.23,6.53-2.35,3.18-4.05,5.47-10.86,5.47-4.38,0-6.72.72-7.95,1.38.45,2.93,1.44,5.69,2.84,8.17h42.05c1.99-3.51,3.13-7.56,3.13-11.88,0-3.61-.8-7.03-2.22-10.11-3.57-1.38-14.02-4.71-20.76.43ZM37.27,26.61c-.06-.03-.07-.13,0-.16l2.08-1.3c.06-.04.14,0,.14.08l.09,2.45c0,.07-.07.12-.14.09l-.9-.48c-1.28,1.33-3.59,2.63-3.7,2.7-.06.03-.12.05-.18.05-.13,0-.25-.07-.32-.18-.1-.17-.04-.39.14-.49.03-.01,2.18-1.23,3.4-2.42l-.61-.32ZM30.01,18.78l1.41-1.91c.04-.06.13-.04.16.02l.33.82c3.29-.5,4.95-.3,5.38.64.39.86-.02,2.45-6.63,7.16-.06.05-.14.07-.21.07-.11,0-.22-.05-.29-.15-.12-.16-.08-.39.08-.5,6.3-4.49,6.57-5.88,6.39-6.27-.09-.2-.69-.8-4.43-.25l.32.77c.03.07-.03.14-.09.13l-2.35-.37c-.07-.01-.1-.09-.06-.15ZM17.79,37.09l-2.23,1.3c-.07.04-.15,0-.15-.09v-.93h-6.37c-.2,0-.36-.16-.36-.36s.16-.36.36-.36h6.37v-.93c0-.08.08-.12.15-.09l2.23,1.3c.07.04.07.13,0,.17ZM19.9,31.62c-.11,0-.22-.05-.29-.15-.12-.16-.09-.39.07-.51,6.04-4.49,5.7-5.3,5.69-5.33,0,0-.16-.22-1.38-.05l.41.7c.04.06,0,.14-.08.14l-2.38-.03c-.07,0-.12-.08-.08-.14l1.12-2.1c.03-.06.12-.06.16,0l.44.75c1.41-.24,2.15-.12,2.41.38.37.7-.09,1.93-5.89,6.25-.06.05-.14.07-.22.07ZM29.08,31.08l-1.58,1.63s-.13.03-.15-.04l-.2-.72c-1.61.45-4.12,1.01-4.26,1.04-.03,0-.05,0-.08,0-.17,0-.31-.11-.35-.28-.04-.19.08-.39.27-.43.03,0,2.62-.59,4.22-1.03l-.22-.79c-.02-.07.04-.13.11-.11l2.2.56c.07.02.09.1.04.15ZM36.58,33.64l-1.34,1.84c-.04.05-.12.05-.15-.02l-.35-.79c-1.74.53-3.48.59-4.27.59-.25,0-.41,0-.44,0-.2,0-.35-.18-.34-.38,0-.2.18-.34.38-.34.03,0,2.22.09,4.38-.53l-.28-.63c-.03-.06.02-.13.09-.12l2.26.25c.07,0,.1.08.06.14ZM43.6,34.67l-.84,1.95c-.03.06-.1.07-.14.02l-.45-.6c-.57.42-1.17.8-1.8,1.14-1.05.56-2.16,1-3.31,1.31-.03,0-.06.01-.09.01-.16,0-.31-.11-.35-.27-.05-.19.06-.39.25-.44,1.09-.3,2.16-.72,3.15-1.25.6-.32,1.17-.68,1.71-1.08l-.39-.53c-.04-.05,0-.12.06-.13l1.36-.15s0,0,.01,0c.12-.1.29-.11.42-.04l.32-.04c.06,0,.11.06.08.11ZM45.16,27.09c-.07-.02-.09-.1-.04-.14l1.56-1.62s.13-.03.15.04l.64,2.16c.02.06-.04.12-.1.11l-.86-.21c-.27.58-.66,1.21-1.23,1.79-1.7,1.75-3.86,1.99-4.71,2.01,0,0,0,0,0,0-.2,0-.36-.16-.36-.35,0-.2.15-.36.35-.37.76-.02,2.69-.23,4.21-1.79.46-.48.79-.98,1.03-1.47l-.62-.15ZM39.31,22.62c3.19-1.03,4.61-2.88,4.37-3.77-.14-.53-.9-.91-1.67-1.14l.02.9c0,.07-.08.12-.14.09l-2.15-1.18c-.06-.03-.07-.13,0-.16l2.09-1.28c.06-.04.14,0,.14.08l.02.81c.93.25,2.13.75,2.38,1.71.37,1.39-1.34,3.51-4.85,4.64-.04.01-.07.02-.11.02-.15,0-.29-.1-.34-.25-.06-.19.04-.39.23-.45Z"/>
  <path class="cls-1" d="M9.84,39.68l-1.95,2.08c.41.54.85,1.06,1.3,1.55l3.4-3.63h-2.76Z"/>
  <path class="cls-1" d="M41.85,45.36c-.06.07-.15.1-.23.1-.08,0-.16-.03-.22-.09-.13-.12-.14-.32-.01-.45l4.91-5.24h-2.78l-5.32,5.68c-.06.07-.15.1-.23.1-.08,0-.16-.03-.22-.09-.13-.12-.14-.32-.01-.45l4.91-5.24h-2.76l-5.26,5.62c-.06.07-.15.1-.23.1-.08,0-.16-.03-.22-.09-.13-.12-.14-.32-.01-.45l4.85-5.18h-3l-5.32,5.68c-.06.07-.15.1-.23.1-.08,0-.16-.03-.22-.09-.13-.12-.14-.32-.01-.45l4.91-5.24h-2.76l-5.26,5.62c-.06.07-.15.1-.23.1-.08,0-.16-.03-.22-.09-.13-.12-.14-.32-.01-.45l4.85-5.18h-3.01l-5.32,5.68c-.06.07-.15.1-.23.1-.08,0-.16-.03-.22-.09-.13-.12-.14-.32-.01-.45l4.91-5.24h-2.76l-5.26,5.62c-.06.07-.15.1-.23.1-.08,0-.16-.03-.22-.09-.13-.12-.14-.32-.01-.45l4.85-5.18h-2.9l-5.32,5.68c-.06.07-.15.1-.23.1-.08,0-.16-.03-.22-.09-.13-.12-.14-.32-.01-.45l4.91-5.24h-2.76l-5.26,5.62c-.06.07-.15.1-.23.1-.08,0-.16-.03-.22-.09-.13-.12-.14-.32-.01-.45l4.85-5.18h-3.06l-3.84,4.1c4.39,4.54,10.54,7.37,17.36,7.37,8.69,0,16.3-4.59,20.55-11.47h-.38l-5.32,5.68Z"/>
</svg>