<?xml version="1.0" encoding="UTF-8"?>
<svg id="Capa_1" data-name="Capa 1" xmlns="http://www.w3.org/2000/svg" viewBox="0 0 54 54">
  <defs>
    <style>
      .cls-1 {
        fill: #fff;
      }

      .cls-2 {
        fill: none;
      }
    </style>
  </defs>
  <circle cx="27" cy="27" r="27" fill="#ffffff"/>
  <path d="M27,0C12.09,0,0,12.09,0,27s12.09,27,27,27,27-12.09,27-27S41.91,0,27,0ZM27.2,20.25c-3.37,2.57-5.13,4.94-6.54,6.85-2.3,3.11-3.57,4.82-9.57,4.82-3.52,0-5.89.45-7.49,1.04-.48-1.91-.74-3.91-.74-5.97C2.85,13.66,13.66,2.85,27,2.85c10.88,0,20.07,7.19,23.1,17.07l-2.53-1.02c-4.82-1.59-13.91-3.55-20.36,1.36Z"/>
  <circle class="cls-2" cx="27" cy="27" r="24.15"/>
  <g>
    <g>
      <path d="M19.3,18.58s-.02.11-.05.17c-.15.31-.29.61-.45.91-.14.25-.38.32-.62.2-.21-.11-.31-.35-.2-.6.14-.32.3-.63.47-.93.11-.2.3-.29.52-.22.21.06.32.21.33.47Z"/>
      <path d="M18.61,15.78c-.02.07-.03.15-.07.22-.14.29-.28.58-.43.86-.14.25-.37.34-.61.23-.23-.1-.33-.36-.22-.61.14-.32.3-.63.47-.93.11-.19.29-.29.52-.22.22.07.31.22.34.45Z"/>
      <path d="M20.84,15.3c.37,0,.6.31.49.58-.15.36-.33.71-.52,1.05-.12.21-.34.25-.56.15-.21-.1-.32-.3-.23-.51.16-.38.35-.74.55-1.1.06-.1.21-.14.27-.17Z"/>
      <path d="M22.06,18.58s-.03.13-.06.21c-.13.28-.27.56-.42.84-.15.27-.38.35-.63.23-.22-.11-.31-.36-.2-.62.14-.32.3-.63.47-.93.11-.2.31-.27.53-.2.2.06.3.21.31.47Z"/>
      <path d="M24.81,18.58s-.02.11-.05.17c-.15.31-.29.61-.45.91-.14.25-.38.32-.62.2-.21-.11-.31-.35-.2-.6.14-.32.3-.63.47-.93.11-.2.3-.29.52-.22.21.06.32.21.33.47Z"/>
      <path d="M24.12,15.78c-.02.07-.03.15-.07.22-.14.29-.28.58-.43.86-.14.25-.37.34-.61.23-.23-.1-.33-.36-.22-.61.14-.32.3-.63.47-.93.11-.19.29-.29.52-.22.22.07.31.22.34.45Z"/>
      <path d="M26.35,15.3c.37,0,.6.31.49.58-.15.36-.33.71-.52,1.05-.12.21-.34.25-.56.15-.21-.1-.32-.3-.23-.51.16-.38.35-.74.55-1.1.06-.1.21-.14.27-.17Z"/>
      <path d="M27.57,18.58s-.03.13-.06.21c-.13.28-.27.56-.42.84-.15.27-.38.35-.63.23-.22-.11-.31-.36-.2-.62.14-.32.3-.63.47-.93.11-.2.31-.27.53-.2.2.06.3.21.31.47Z"/>
      <path d="M29.1,15.3c.37,0,.6.31.49.58-.15.36-.33.71-.52,1.05-.12.21-.34.25-.56.15-.21-.1-.32-.3-.23-.51.16-.38.35-.74.55-1.1.06-.1.21-.14.27-.17Z"/>
      <path d="M16.52,18.58s-.03.13-.06.21c-.13.28-.27.56-.42.84-.15.27-.38.35-.63.23-.22-.11-.31-.36-.2-.62.14-.32.3-.63.47-.93.11-.2.31-.27.53-.2.2.06.3.21.31.47Z"/>
      <path d="M20.44,21.33s-.03.13-.06.21c-.13.28-.27.56-.42.84-.15.27-.38.35-.63.23-.22-.11-.31-.36-.2-.62.14-.32.3-.63.47-.93.11-.2.31-.27.53-.2.2.06.3.21.31.47Z"/>
      <path d="M18.99,25.88s-.03.13-.06.21c-.13.28-.27.56-.42.84-.15.27-.38.35-.63.23-.22-.11-.31-.36-.2-.62.14-.32.3-.63.47-.93.11-.2.31-.27.53-.2.2.06.3.21.31.47Z"/>
      <path d="M23.19,21.33s-.02.11-.05.17c-.15.31-.29.61-.45.91-.14.25-.38.32-.62.2-.21-.11-.31-.35-.2-.6.14-.32.3-.63.47-.93.11-.2.3-.29.52-.22.21.06.32.21.33.47Z"/>
      <path d="M21.12,24.05s-.03.13-.06.21c-.13.28-.27.56-.42.84-.15.27-.38.35-.63.23-.22-.11-.31-.36-.2-.62.14-.32.3-.63.47-.93.11-.2.31-.27.53-.2.2.06.3.21.31.47Z"/>
      <path d="M17.64,21s-.03.13-.06.21c-.13.28-.27.56-.42.84-.15.27-.38.35-.63.23-.22-.11-.31-.36-.2-.62.14-.32.3-.63.47-.93.11-.2.31-.27.53-.2.2.06.3.21.31.47Z"/>
      <path d="M17.91,23.69s-.03.13-.06.21c-.13.28-.27.56-.42.84-.15.27-.38.35-.63.23-.22-.11-.31-.36-.2-.62.14-.32.3-.63.47-.93.11-.2.31-.27.53-.2.2.06.3.21.31.47Z"/>
    </g>
    <path d="M16.69,10.62c.03-.62.2-1.19.59-1.68.62-.78,1.43-1.17,2.43-1.17.22,0,.34-.05.44-.28.74-1.71,2.54-2.77,4.4-2.61,1.66.14,2.89.94,3.69,2.41.05.09.17.19.28.21,1.03.2,1.71.93,1.81,1.98.02.19.12.24.26.3.92.41,1.51,1.4,1.42,2.38-.09,1.1-.78,1.95-1.81,2.2-.21.05-.44.05-.67.05-4.3,0-8.6,0-12.9,0-.92,0-1.72-.78-1.76-1.7-.05-1.13.58-1.89,1.7-2.06.03,0,.07-.02.11-.03Z"/>
  </g>
  <path class="cls-2" d="M15.28,49.59c.06.06.14.09.22.09.09,0,.17-.03.23-.1l.77-.82c-.2-.1-.4-.2-.59-.3l-.64.68c-.12.13-.11.33.01.45Z"/>
  <path class="cls-2" d="M11.7,49.53c.06.06.14.09.22.09.09,0,.17-.03.23-.1l1.96-2.09c-.18-.12-.37-.23-.55-.35l-1.88,2.01c-.12.13-.11.33.01.45Z"/>
  <path class="cls-2" d="M37.74,49.59c.06.06.14.09.22.09.09,0,.17-.03.23-.1l2.54-2.72c-.68.47-1.38.91-2.1,1.31l-.91.97c-.12.13-.11.33.01.45Z"/>
  <path d="M9.79,43.94l.05-.05h2.76l-1.33,1.42c.16.14.32.28.49.42l1.72-1.84h3.06l-2.97,3.17c.18.12.37.24.55.35l3.3-3.53h2.76l-4.27,4.56c.2.1.39.21.59.3l4.55-4.86h2.9l-4.85,5.18c-.12.13-.11.33.01.45.06.06.14.09.22.09.09,0,.17-.03.23-.1l5.26-5.62h2.76l-4.91,5.24c-.12.13-.11.33.01.45.06.06.14.09.22.09.09,0,.17-.03.23-.1l5.32-5.68h3.01l-4.85,5.18c-.12.13-.11.33.01.45.06.06.14.09.22.09.09,0,.17-.03.23-.1l5.26-5.62h2.76l-4.91,5.24c-.12.13-.11.33.01.45.06.06.14.09.22.09.09,0,.17-.03.23-.1l5.32-5.68h3l-4.85,5.18c-.12.13-.11.33.01.45.06.06.14.09.22.09.09,0,.17-.03.23-.1l5.26-5.62h2.76l-4,4.27c.72-.4,1.43-.84,2.1-1.31l2.77-2.96h.74c.26-.26.51-.53.75-.8H9c.26.29.53.57.8.85Z"/>
  <path class="cls-1" d="M9.84,43.9l-.05.05c.47.48.96.93,1.47,1.37l1.33-1.42h-2.76Z"/>
  <path class="cls-1" d="M20.17,43.9h-2.76l-3.3,3.53c.58.37,1.18.71,1.79,1.03l4.27-4.56Z"/>
  <path class="cls-1" d="M16.54,43.9h-3.06l-1.72,1.84c.58.47,1.18.92,1.81,1.34l2.97-3.17Z"/>
  <path class="cls-1" d="M38.64,48.16l4-4.27h-2.76l-5.26,5.62c-.06.07-.15.1-.23.1-.08,0-.16-.03-.22-.09-.13-.12-.14-.32-.01-.45l4.85-5.18h-3l-5.32,5.68c-.06.07-.15.1-.23.1-.08,0-.16-.03-.22-.09-.13-.12-.14-.32-.01-.45l4.91-5.24h-2.76l-5.26,5.62c-.06.07-.15.1-.23.1-.08,0-.16-.03-.22-.09-.13-.12-.14-.32-.01-.45l4.85-5.18h-3.01l-5.32,5.68c-.06.07-.15.1-.23.1-.08,0-.16-.03-.22-.09-.13-.12-.14-.32-.01-.45l4.91-5.24h-2.76l-5.26,5.62c-.06.07-.15.1-.23.1-.08,0-.16-.03-.22-.09-.13-.12-.14-.32-.01-.45l4.85-5.18h-2.9l-4.55,4.86c3.17,1.53,6.73,2.39,10.5,2.39,4.22,0,8.19-1.09,11.64-2.99Z"/>
  <path class="cls-1" d="M40.74,46.86c1.26-.88,2.44-1.87,3.51-2.96h-.74l-2.77,2.96Z"/>
  <g>
    <path d="M32.42,23.52c.07.01.12-.06.09-.13l-.32-.77c3.75-.55,4.34.04,4.43.25.18.39-.09,1.78-6.39,6.27-.16.12-.2.34-.08.5.07.1.18.15.29.15.07,0,.15-.02.21-.07,6.61-4.71,7.01-6.3,6.63-7.16-.42-.94-2.09-1.14-5.38-.64l-.33-.82c-.03-.07-.11-.08-.16-.02l-1.41,1.91c-.04.06,0,.14.06.15l2.35.37Z"/>
    <path d="M15.55,39.83c-.07-.04-.15,0-.15.09v.93h-6.37c-.2,0-.36.16-.36.36s.16.36.36.36h6.37v.93c0,.08.08.12.15.09l2.23-1.3c.07-.04.07-.13,0-.17l-2.23-1.3Z"/>
    <path d="M34.34,34.06c.07.12.19.18.32.18.06,0,.12-.01.18-.05.12-.07,2.42-1.37,3.7-2.7l.9.48c.06.03.14-.01.14-.09l-.09-2.45c0-.07-.08-.12-.14-.08l-2.08,1.3c-.06.04-.06.13,0,.16l.61.32c-1.22,1.19-3.37,2.41-3.4,2.42-.17.1-.24.32-.14.49Z"/>
    <path d="M26.01,29.51c-.27-.5-1.01-.62-2.41-.38l-.44-.75c-.04-.06-.13-.06-.16,0l-1.12,2.1c-.03.06.01.14.08.14l2.38.03c.07,0,.11-.08.08-.14l-.41-.7c1.21-.17,1.38.05,1.38.05.02.03.35.84-5.69,5.33-.16.12-.19.35-.07.51.07.1.18.15.29.15.07,0,.15-.02.22-.07,5.8-4.32,6.26-5.55,5.9-6.25Z"/>
    <path d="M39.42,27.53s.07,0,.11-.02c3.51-1.13,5.22-3.25,4.85-4.64-.26-.96-1.45-1.46-2.38-1.71l-.02-.81c0-.07-.08-.12-.14-.08l-2.09,1.28c-.06.04-.06.13,0,.16l2.15,1.18c.06.04.14-.01.14-.09l-.02-.9c.76.23,1.52.6,1.67,1.14.24.89-1.19,2.74-4.37,3.77-.19.06-.29.26-.23.45.05.15.19.25.34.25Z"/>
    <path d="M43.51,38.77l-.32.04c-.13-.07-.3-.07-.42.04,0,0,0,0-.01,0l-1.36.15c-.06,0-.09.08-.06.13l.39.53c-.55.4-1.12.76-1.71,1.08-1,.53-2.06.96-3.15,1.25-.19.05-.31.25-.25.44.04.16.19.27.35.27.03,0,.06,0,.09-.01,1.15-.31,2.26-.75,3.31-1.31.63-.34,1.22-.72,1.8-1.14l.45.6c.04.05.12.04.14-.02l.84-1.95c.03-.06-.02-.12-.08-.11Z"/>
    <path d="M46.68,29.53l-1.56,1.62s-.02.13.04.14l.62.15c-.24.48-.57.99-1.03,1.47-1.52,1.56-3.45,1.77-4.21,1.79-.2,0-.36.17-.35.37,0,.2.17.35.36.35,0,0,0,0,0,0,.85-.02,3.01-.25,4.71-2.01.57-.59.96-1.21,1.23-1.79l.86.21c.07.02.12-.04.1-.11l-.64-2.16c-.02-.06-.1-.08-.15-.04Z"/>
    <path d="M26.84,34.58c-.07-.02-.12.04-.11.11l.22.79c-1.6.44-4.18,1.02-4.22,1.03-.19.04-.32.24-.27.43.04.17.19.28.35.28.03,0,.05,0,.08,0,.14-.03,2.64-.59,4.26-1.04l.2.72c.02.07.1.09.15.04l1.58-1.63s.02-.13-.04-.15l-2.2-.56Z"/>
    <path d="M34.26,37.47c-.07,0-.12.06-.09.12l.28.63c-2.16.63-4.35.54-4.38.53-.2,0-.37.14-.38.34s.14.37.34.38c.03,0,.18,0,.44,0,.79,0,2.53-.07,4.27-.59l.35.79c.03.06.11.07.15.02l1.34-1.84c.04-.05,0-.13-.06-.14l-2.26-.25Z"/>
  </g>
  <path class="cls-1" d="M50.54,21.61l-3.07-1.04h0c-4.42-1.49-13.31-3.6-19.29.96-3.19,2.43-4.87,4.7-6.23,6.53-2.35,3.18-4.05,5.47-10.86,5.47-3.49,0-5.67.46-7.04.98,1.05,3.21,2.75,6.12,4.95,8.58h36.01c3.82-4.27,6.15-9.91,6.15-16.09,0-1.85-.22-3.65-.61-5.39ZM39.31,26.83c3.19-1.03,4.61-2.88,4.37-3.77-.14-.53-.9-.91-1.67-1.14l.02.9c0,.07-.08.12-.14.09l-2.15-1.18c-.06-.03-.07-.13,0-.16l2.09-1.28c.06-.04.14,0,.14.08l.02.81c.93.25,2.12.75,2.38,1.71.37,1.39-1.34,3.51-4.85,4.64-.04.01-.07.02-.11.02-.15,0-.29-.1-.34-.25-.06-.19.04-.39.23-.45ZM37.27,30.83c-.06-.03-.07-.13,0-.16l2.08-1.3c.06-.04.14,0,.14.08l.09,2.45c0,.07-.07.12-.14.09l-.9-.48c-1.28,1.33-3.59,2.63-3.7,2.7-.06.03-.12.05-.18.05-.13,0-.25-.07-.32-.18-.1-.17-.04-.39.14-.49.03-.01,2.18-1.23,3.4-2.42l-.61-.32ZM30.01,23l1.41-1.91c.04-.06.13-.04.16.02l.33.82c3.29-.5,4.95-.3,5.38.64.39.86-.02,2.45-6.63,7.16-.06.05-.14.07-.21.07-.11,0-.22-.05-.29-.15-.12-.16-.08-.39.08-.5,6.3-4.49,6.57-5.88,6.39-6.27-.09-.2-.69-.8-4.43-.25l.32.77c.03.07-.03.14-.09.13l-2.35-.37c-.07-.01-.1-.09-.06-.15ZM17.79,41.3l-2.23,1.3c-.07.04-.15,0-.15-.09v-.93h-6.37c-.2,0-.36-.16-.36-.36s.16-.36.36-.36h6.37v-.93c0-.08.08-.12.15-.09l2.23,1.3c.07.04.07.13,0,.17ZM19.9,35.84c-.11,0-.22-.05-.29-.15-.12-.16-.09-.39.07-.51,6.04-4.49,5.7-5.3,5.69-5.33,0,0-.16-.22-1.38-.05l.41.7c.04.06,0,.14-.08.14l-2.38-.03c-.07,0-.12-.08-.08-.14l1.12-2.1c.03-.06.12-.06.16,0l.44.75c1.41-.24,2.15-.12,2.41.38.37.7-.09,1.93-5.9,6.25-.06.05-.14.07-.22.07ZM29.08,35.29l-1.58,1.63s-.13.03-.15-.04l-.2-.72c-1.61.45-4.12,1.01-4.26,1.04-.03,0-.05,0-.08,0-.17,0-.31-.11-.35-.28-.04-.19.08-.39.27-.43.03,0,2.62-.59,4.22-1.03l-.22-.79c-.02-.07.04-.13.11-.11l2.2.56c.07.02.09.1.04.15ZM36.58,37.86l-1.34,1.84c-.04.05-.12.05-.15-.02l-.35-.79c-1.74.53-3.48.59-4.27.59-.25,0-.41,0-.44,0-.2,0-.35-.18-.34-.38s.18-.34.38-.34c.03,0,2.22.09,4.38-.53l-.28-.63c-.03-.06.02-.13.09-.12l2.26.25c.07,0,.1.08.06.14ZM42.75,40.83c-.03.06-.1.07-.14.02l-.45-.6c-.57.42-1.17.8-1.8,1.14-1.05.56-2.16,1-3.31,1.31-.03,0-.06.01-.09.01-.16,0-.3-.11-.35-.27-.05-.19.06-.39.25-.44,1.09-.3,2.16-.72,3.15-1.25.6-.32,1.17-.68,1.71-1.08l-.39-.53c-.04-.05,0-.12.06-.13l1.36-.15s0,0,.01,0c.12-.1.29-.11.42-.04l.32-.04c.06,0,.11.06.08.11l-.84,1.95ZM47.36,31.84l-.86-.21c-.27.58-.66,1.21-1.23,1.79-1.7,1.75-3.86,1.99-4.71,2.01,0,0,0,0,0,0-.2,0-.36-.16-.36-.35,0-.2.15-.36.35-.37.76-.02,2.69-.23,4.21-1.79.46-.48.8-.98,1.03-1.47l-.62-.15c-.07-.02-.09-.1-.04-.14l1.56-1.62s.13-.03.15.04l.64,2.16c.02.06-.04.12-.1.11Z"/>
</svg>