<?xml version="1.0" encoding="UTF-8"?>
<svg id="Capa_1" data-name="Capa 1" xmlns="http://www.w3.org/2000/svg" xmlns:xlink="http://www.w3.org/1999/xlink" viewBox="0 0 54 54">
  <defs>
    <style>
      .cls-1 {
        fill: #fff;
      }

      .cls-2, .cls-3 {
        fill: none;
      }

      .cls-4 {
        clip-path: url(#clippath-1);
      }

      .cls-5 {
        clip-path: url(#clippath-2);
      }

      .cls-3 {
        stroke: #6f6f6e;
        stroke-linecap: square;
        stroke-linejoin: bevel;
        stroke-width: .12px;
      }

      .cls-6 {
        clip-path: url(#clippath);
      }
    </style>
    <clipPath id="clippath">
      <polygon class="cls-2" points="-27.64 30.93 -24.3 30.93 -24.3 32.92 -20.71 32.92 -20.71 37.96 -25.2 37.96 -27.64 30.93"/>
    </clipPath>
    <clipPath id="clippath-1">
      <rect class="cls-2" x="-23.77" y="22.09" width="14.4" height="14.4"/>
    </clipPath>
    <clipPath id="clippath-2">
      <rect class="cls-2" x="-23.77" y="36.49" width="14.4" height="14.4"/>
    </clipPath>
  </defs>
  <circle cx="27" cy="27" r="27" fill="#ffffff"/>
  <g class="cls-6">
    <g class="cls-4">
      <g>
        <line class="cls-3" x1="-9.37" y1="36.49" x2="5.04" y2="50.9"/>
        <line class="cls-3" x1="5.04" y1="36.49" x2="-9.37" y2="50.9"/>
        <line class="cls-3" x1="3.84" y1="36.49" x2="-9.97" y2="50.3"/>
        <line class="cls-3" x1="2.64" y1="36.49" x2="-9.97" y2="49.1"/>
        <line class="cls-3" x1="1.44" y1="36.49" x2="-9.97" y2="47.9"/>
        <line class="cls-3" x1=".24" y1="36.49" x2="-9.97" y2="46.7"/>
      </g>
      <g>
        <line class="cls-3" x1="-9.37" y1="22.09" x2="5.04" y2="36.49"/>
        <line class="cls-3" x1="-9.97" y1="22.69" x2="3.84" y2="36.49"/>
        <line class="cls-3" x1="-9.97" y1="23.89" x2="2.64" y2="36.49"/>
        <line class="cls-3" x1="-9.97" y1="25.09" x2="1.44" y2="36.49"/>
        <line class="cls-3" x1="-9.97" y1="26.29" x2=".24" y2="36.49"/>
        <line class="cls-3" x1="5.04" y1="22.09" x2="-9.37" y2="36.49"/>
        <line class="cls-3" x1="3.84" y1="22.09" x2="-9.97" y2="35.89"/>
        <line class="cls-3" x1="2.64" y1="22.09" x2="-9.97" y2="34.69"/>
        <line class="cls-3" x1="1.44" y1="22.09" x2="-9.97" y2="33.49"/>
        <line class="cls-3" x1=".24" y1="22.09" x2="-9.97" y2="32.29"/>
      </g>
      <g>
        <line class="cls-3" x1="-9.37" y1="7.68" x2="5.04" y2="22.09"/>
        <line class="cls-3" x1="-9.97" y1="8.28" x2="3.84" y2="22.09"/>
        <line class="cls-3" x1="-9.97" y1="9.48" x2="2.64" y2="22.09"/>
        <line class="cls-3" x1="-9.97" y1="10.68" x2="1.44" y2="22.09"/>
        <line class="cls-3" x1="-9.97" y1="11.88" x2=".24" y2="22.09"/>
        <line class="cls-3" x1="5.04" y1="7.68" x2="-9.37" y2="22.09"/>
      </g>
    </g>
    <g class="cls-5">
      <g>
        <line class="cls-3" x1="-9.37" y1="50.9" x2="5.04" y2="65.3"/>
        <line class="cls-3" x1="5.04" y1="50.9" x2="-9.37" y2="65.3"/>
        <line class="cls-3" x1="3.84" y1="50.9" x2="-9.97" y2="64.7"/>
        <line class="cls-3" x1="2.64" y1="50.9" x2="-9.97" y2="63.5"/>
        <line class="cls-3" x1="1.44" y1="50.9" x2="-9.97" y2="62.3"/>
        <line class="cls-3" x1=".24" y1="50.9" x2="-9.97" y2="61.1"/>
      </g>
      <g>
        <line class="cls-3" x1="-9.37" y1="36.49" x2="5.04" y2="50.9"/>
        <line class="cls-3" x1="-9.97" y1="37.09" x2="3.84" y2="50.9"/>
        <line class="cls-3" x1="-9.97" y1="38.29" x2="2.64" y2="50.9"/>
        <line class="cls-3" x1="-9.97" y1="39.49" x2="1.44" y2="50.9"/>
        <line class="cls-3" x1="-9.97" y1="40.69" x2=".24" y2="50.9"/>
        <line class="cls-3" x1="5.04" y1="36.49" x2="-9.37" y2="50.9"/>
        <line class="cls-3" x1="3.84" y1="36.49" x2="-9.97" y2="50.3"/>
        <line class="cls-3" x1="2.64" y1="36.49" x2="-9.97" y2="49.1"/>
        <line class="cls-3" x1="1.44" y1="36.49" x2="-9.97" y2="47.9"/>
        <line class="cls-3" x1=".24" y1="36.49" x2="-9.97" y2="46.7"/>
      </g>
      <g>
        <line class="cls-3" x1="-9.37" y1="22.09" x2="5.04" y2="36.49"/>
        <line class="cls-3" x1="-9.97" y1="22.69" x2="3.84" y2="36.49"/>
        <line class="cls-3" x1="-9.97" y1="23.89" x2="2.64" y2="36.49"/>
        <line class="cls-3" x1="-9.97" y1="25.09" x2="1.44" y2="36.49"/>
        <line class="cls-3" x1="-9.97" y1="26.29" x2=".24" y2="36.49"/>
        <line class="cls-3" x1="5.04" y1="22.09" x2="-9.37" y2="36.49"/>
      </g>
    </g>
  </g>
  <g>
    <path d="M27,0C12.09,0,0,12.09,0,27s12.09,27,27,27,27-12.09,27-27S41.91,0,27,0ZM7.68,41.5c-3.04-4.04-4.84-9.06-4.84-14.5s1.8-10.46,4.84-14.5v29ZM27,51.15c-5.23,0-10.06-1.67-14.02-4.49h1.92v1.06h.2v-1.06h6.95v1.06h.2v-1.06h6.87v1.06h.2v-1.06h6.87v1.06h.2v-1.06h4.62c-3.95,2.82-8.79,4.49-14.02,4.49ZM43.21,11.03v-.72h-.2v.72h-6.62v-.59h-.2v.59h-6.87v-.59h-.2v.59h-6.87v-.59h-.2v.59h-6.95v-.59h-.2v.59h-6.02C13.31,6.02,19.79,2.85,27,2.85s13.69,3.17,18.11,8.18h-1.9Z"/>
    <path class="cls-1" d="M12.9,39.01h2.01v-6.79h-1.53c-.16,2.03-.32,4.29-.48,6.79Z"/>
    <path class="cls-1" d="M50.31,33.32c.1-.36.19-.73.27-1.1h-.27v1.1Z"/>
    <path class="cls-1" d="M14.9,45.86v-1.63c-.95.7-1.99,1.24-2.85,1.63h2.85Z"/>
    <path class="cls-1" d="M8.49,25.22v6.79h4.09c.2-2.54.41-4.8.64-6.79h-4.73Z"/>
    <path class="cls-1" d="M14.26,18.23h-5.78v6.79h4.75c.32-2.82.66-5.08,1.02-6.79Z"/>
    <path class="cls-1" d="M50.31,32.02h.31c.34-1.62.53-3.3.53-5.02,0-.6-.03-1.19-.07-1.78h-.77v6.79Z"/>
    <path class="cls-1" d="M13.39,32.02h1.52v-6.79h-.87c-.21,1.91-.43,4.16-.64,6.79Z"/>
    <path class="cls-1" d="M17.4,40.99l-.12.33c-.4,1.1-1.23,2.02-2.18,2.77v1.78h6.95v-6.65h-3.99c-.26.68-.48,1.29-.66,1.78Z"/>
    <path class="cls-1" d="M20.59,32.22h-5.49v6.79h2.39c.77-2.04,1.83-4.65,3.1-6.79Z"/>
    <path class="cls-1" d="M16.72,41.11l.12-.33c.17-.46.36-.99.58-1.57h-2.31v4.08c.72-.62,1.31-1.35,1.62-2.18Z"/>
    <path class="cls-1" d="M16.84,14.59c-.22-.05-.48.21-.66.43-.31.39-.68,1.26-1.06,3h3.45c-.56-1.84-1.15-3.31-1.73-3.43Z"/>
    <path class="cls-1" d="M14.9,25.02v-5.92c-.28,1.46-.56,3.39-.85,5.92h.85Z"/>
    <path class="cls-1" d="M19.46,21.2c-.27-.99-.54-2.02-.83-2.97h-3.53v6.79h5.43c-.38-1.23-.73-2.54-1.08-3.83Z"/>
    <path class="cls-1" d="M10.2,44.34c.81-.82,1.69-2.07,1.79-3.67l.05-.74c.01-.24.03-.48.04-.72h-3.59v3.29c.54.64,1.11,1.25,1.71,1.84Z"/>
    <path class="cls-1" d="M43.21,18.03h6.21c-1-2.5-2.41-4.79-4.14-6.79h-2.07v6.79Z"/>
    <path class="cls-1" d="M8.49,18.03h5.82c.19-.88.39-1.61.6-2.19v-4.6h-6.19c-.08.09-.15.17-.23.26v6.53Z"/>
    <path class="cls-1" d="M43.21,25.02h6.9v-5.04c-.18-.59-.39-1.18-.61-1.75h-6.29v6.79Z"/>
    <path class="cls-1" d="M51.06,25.02c-.12-1.49-.37-2.94-.75-4.34v4.34h.75Z"/>
    <path class="cls-1" d="M43.21,44.9c.73-.66,1.41-1.36,2.05-2.11-.59-.34-1.29-.75-2.05-1.2v3.31Z"/>
    <path class="cls-1" d="M43.01,41.47c-1.14-.68-2.4-1.46-3.65-2.26h-2.97v6.65h5.68c.32-.25.63-.52.94-.79v-3.6Z"/>
    <path class="cls-1" d="M14.9,43.47v-4.25h-2.02c-.02.26-.03.51-.05.77l-.05.75c-.12,1.85-1.09,3.26-2,4.18.21.19.43.38.64.56.99-.41,2.35-1.08,3.47-2Z"/>
    <path class="cls-1" d="M43.21,40.89c.92.55,1.76,1.04,2.45,1.44.8-.98,1.53-2.02,2.17-3.11h-4.62v1.68Z"/>
    <path class="cls-1" d="M43.21,32.22v6.79h4.74c.9-1.56,1.63-3.23,2.16-4.99v-1.8h-6.9Z"/>
    <path class="cls-1" d="M18.14,39.01h3.92v-6.79h-.76c-1.27,2.1-2.37,4.75-3.15,6.79Z"/>
    <path class="cls-1" d="M8.49,39.01h3.6c.15-2.45.31-4.71.47-6.79h-4.08v6.79Z"/>
    <path class="cls-1" d="M29.33,29.94c.75.61,1.5,1.32,2.26,2.08h4.61v-6.79h-6.87v4.72Z"/>
    <rect class="cls-1" x="29.33" y="18.23" width="6.87" height="6.79"/>
    <rect class="cls-1" x="29.33" y="11.23" width="6.87" height="6.79"/>
    <path class="cls-1" d="M29.33,39.36c2.21,2.89,4.58,5.27,6.87,6.4v-6.55h-6.87v.15Z"/>
    <path class="cls-1" d="M32.27,32.7c1.24,1.25,2.53,2.53,3.93,3.6v-4.08h-4.41c.16.16.32.32.48.48Z"/>
    <path class="cls-1" d="M36.4,39.01h2.66c-.92-.6-1.83-1.21-2.66-1.81v1.81Z"/>
    <path class="cls-1" d="M31.84,33.13c-.31-.31-.61-.61-.91-.91h-1.61v6.79h6.87v-1.96s-.05-.04-.08-.06c-1.54-1.13-2.93-2.52-4.27-3.87Z"/>
    <rect class="cls-1" x="36.4" y="18.23" width="6.62" height="6.79"/>
    <path class="cls-1" d="M43.01,40.77v-1.56h-2.53c.86.55,1.72,1.07,2.53,1.56Z"/>
    <rect class="cls-1" x="36.4" y="11.23" width="6.62" height="6.79"/>
    <rect class="cls-1" x="43.21" y="25.22" width="6.9" height="6.79"/>
    <path class="cls-1" d="M22.05,32.02v-.95c-.22.3-.43.62-.64.95h.64Z"/>
    <path class="cls-1" d="M36.4,36.45s.05.04.08.06c1.12.82,2.4,1.68,3.69,2.5h2.85v-6.79h-6.62v4.24Z"/>
    <rect class="cls-1" x="36.4" y="25.22" width="6.62" height="6.79"/>
    <path class="cls-1" d="M29.33,40.69v5.17h5.41c-1.91-1.22-3.75-3.09-5.41-5.17Z"/>
    <path class="cls-1" d="M22.25,29.32v.55c.06-.07.12-.13.18-.2-.06-.12-.12-.24-.18-.35Z"/>
    <path class="cls-1" d="M15.1,15.33c.15-.34.3-.62.46-.81.47-.58.95-.81,1.45-.71.97.21,1.64,1.71,2.4,4.22h2.64v-6.79h-6.95v4.1Z"/>
    <path class="cls-1" d="M22.25,39.21v6.65h6.87v-5.43c-.32-.4-.63-.81-.93-1.22h-5.94Z"/>
    <path class="cls-1" d="M22.72,30.23c-.16.18-.31.36-.46.56v1.22h1.41c-.36-.65-.68-1.25-.95-1.78Z"/>
    <path class="cls-1" d="M20.24,20.99c.37,1.36.74,2.75,1.15,4.03h.67v-6.79h-2.58c.24.82.49,1.74.77,2.76Z"/>
    <path class="cls-1" d="M20.6,25.22h-5.5v6.79h5.61c.43-.71.87-1.36,1.34-1.92v-1.18c-.1-.21-.19-.4-.26-.54-.44-.92-.82-2-1.19-3.15Z"/>
    <path class="cls-1" d="M22.05,26.94v-1.72h-.61c.19.6.39,1.18.61,1.72Z"/>
    <path class="cls-1" d="M23.78,32.22h-1.52v6.79h5.8c-1.7-2.34-3.17-4.79-4.27-6.79Z"/>
    <path class="cls-1" d="M29.33,30.72v1.3h1.4c-.48-.47-.94-.9-1.4-1.3Z"/>
    <rect class="cls-1" x="22.25" y="18.23" width="6.87" height="6.79"/>
    <path class="cls-1" d="M22.25,27.43c.09.2.17.4.26.59.17.35.34.71.52,1.07.64-.54,1.3-.88,1.99-.94,1.41-.12,2.76.56,4.1,1.62v-4.55h-6.87v2.21Z"/>
    <path class="cls-1" d="M25.07,28.75c-.6.05-1.19.37-1.76.88.4.78.82,1.58,1.27,2.38h4.55v-1.47c-1.38-1.16-2.69-1.91-4.05-1.79Z"/>
    <rect class="cls-1" x="22.25" y="11.23" width="6.87" height="6.79"/>
    <path class="cls-1" d="M29.06,39.01h.06v-6.79h-4.44c1.3,2.33,2.79,4.68,4.37,6.79Z"/>
    <path class="cls-1" d="M49.6,18.23v-.2h-.17c.03.07.05.13.08.2h.1Z"/>
  </g>
</svg>