<?xml version="1.0" encoding="UTF-8"?>
<svg id="Capa_1" data-name="Capa 1" xmlns="http://www.w3.org/2000/svg" viewBox="0 0 54 54">
  <circle cx="27" cy="27" r="27" fill="#ffffff"/>
  <path d="M27,0C12.09,0,0,12.09,0,27s12.09,27,27,27,27-12.09,27-27S41.91,0,27,0ZM27,51.15c-13.34,0-24.15-10.81-24.15-24.15S13.66,2.85,27,2.85s24.15,10.81,24.15,24.15-10.81,24.15-24.15,24.15Z"/>
  <path d="M17.96,22.36c.93,1.17,2.11,2.01,3.44,2.7.09-.65.16-1.28.27-1.9.31-1.7,1.02-3.23,1.94-4.67.41-.64.81-1.28,1.21-1.93,1.11-1.79,1.23-3.67.52-5.63-.12-.34-.25-.68-.4-1.09.23.09.39.14.55.21,3.71,1.72,6.4,4.48,8.15,8.16,1.26,2.66,1.8,5.49,1.88,8.41.02.83.62,1.27,1.4.92.42-.19.81-.48,1.14-.8.46-.45.85-.97,1.31-1.51.08.38.17.74.23,1.1.38,2.05.58,4.12.41,6.21-.2,2.51-.86,4.86-2.37,6.92-1.8,2.47-4.28,3.87-7.25,4.46-.13.03-.26.05-.4.03.34-.14.7-.27,1.03-.44,1.8-.89,3.13-2.2,3.58-4.22.36-1.59.01-3.09-.7-4.52-.37-.73-.82-1.43-1.2-2.09-.65.51-1.25.97-1.91,1.49-.06-.43-.09-.74-.15-1.04-.17-.95-.57-1.8-1.09-2.61-.28-.44-.57-.89-.8-1.35-.43-.84-.37-1.71-.07-2.57.06-.17.12-.33.21-.57-.18.07-.31.11-.44.17-2.56,1.29-4.14,3.36-4.81,6.12-.21.84-.26,1.72-.35,2.59-.05.45-.36.71-.74.48-.37-.22-.68-.56-1.01-.86-.1-.09-.16-.2-.31-.38-.1.59-.2,1.1-.26,1.61-.18,1.39-.15,2.77.28,4.12.67,2.11,2.08,3.47,4.2,4.11.1.03.19.06.29.09,0,0,.01.02.08.11-.81-.16-1.56-.28-2.29-.47-2.88-.76-5.39-2.15-7.29-4.5-2.12-2.62-2.74-5.62-2.11-8.9.56-2.94,1.97-5.49,3.72-7.87.02-.02.05-.04.09-.07Z"/>
</svg>