<?xml version="1.0" encoding="UTF-8"?>
<svg id="Capa_1" data-name="Capa 1" xmlns="http://www.w3.org/2000/svg" viewBox="0 0 54 54">
  <defs>
    <style>
      .cls-1 {
        fill: none;
        stroke: #fff;
        stroke-miterlimit: 10;
      }
    </style>
  </defs>
  <path d="M27,0C12.09,0,0,12.09,0,27s12.09,27,27,27,27-12.09,27-27S41.91,0,27,0ZM27,2.85c13.34,0,24.15,10.81,24.15,24.15,0,1.2-.09,2.38-.26,3.54-.78.03-3.16.1-4.94.1-2.15,0-4.11-6.08-8.22-6.08s-6.65,6.08-9.39,6.08-3.72-8.09-10.57-8.09-10.37,8.54-11.54,9.5c-.8.66-2.08.42-2.81.2-.37-1.69-.58-3.44-.58-5.24C2.85,13.66,13.66,2.85,27,2.85Z"/>
  <path class="cls-1" d="M9.57,37.58s3.12-7.92,7.92-7.92,7.14,7.92,10.86,7.92,5.09-5.53,8.41-5.53,5.03,4.8,5.54,5.86"/>
  <path class="cls-1" d="M13.87,43.45s1.96-4.13,5.09-4.13,5.6,8.84,9.12,8.58c4.49-.33,4.56-7.22,7.56-7.47,1.45-.12,3.33,2.79,4.21,4.16"/>
  <polygon points="28.89 21.21 28.89 13.68 31.5 13.68 26.9 6.44 22.5 13.83 24.87 13.83 24.87 21.21 28.89 21.21"/>
</svg>