<?xml version="1.0" encoding="UTF-8"?>
<svg id="Capa_1" data-name="Capa 1" xmlns="http://www.w3.org/2000/svg" viewBox="0 0 54 54">
  <path d="M27,0C12.09,0,0,12.09,0,27s12.09,27,27,27,27-12.09,27-27S41.91,0,27,0ZM27,2.85c12.5,0,22.79,9.5,24.03,21.68-1.25.41-2.11,1.15-2.85,1.79-.96.83-1.6,1.38-3.1,1.38-1.28,0-1.7-.37-2.53-1.12-1.11-.99-2.62-2.36-6.07-2.36s-4.78,1.35-5.77,2.34c-.75.75-1.13,1.13-2.72,1.13-1.73,0-2.31-.52-3.19-1.3-1.03-.92-2.43-2.17-5.35-2.17s-4.3,1.23-5.33,2.14c-.92.81-1.53,1.34-3.39,1.34-1.7,0-2.13-.41-2.9-1.14-.9-.86-2.1-2-4.83-2.23C4.33,12.25,14.56,2.85,27,2.85ZM45.04,43.05c-1.26,0-1.68-.38-2.5-1.12-1.11-.99-2.62-2.36-6.07-2.36s-4.78,1.35-5.77,2.34c-.75.75-1.13,1.13-2.72,1.13-1.73,0-2.31-.52-3.19-1.3-1.03-.92-2.43-2.17-5.35-2.17s-4.3,1.23-5.33,2.14c-.92.81-1.53,1.34-3.39,1.34-1.2,0-1.77-.2-2.27-.58-1.41-1.69-2.6-3.58-3.51-5.61.08.08.17.16.25.24.97.92,2.3,2.19,5.52,2.19s4.8-1.32,5.9-2.28c.88-.77,1.36-1.19,2.82-1.19s1.95.43,2.81,1.2c1.07.96,2.54,2.27,5.73,2.27s4.46-1.3,5.41-2.25c.76-.76,1.22-1.23,3.07-1.23,1.99,0,2.64.58,3.53,1.38.98.88,2.33,2.1,5.08,2.1,1.25,0,2.24-.24,3.06-.6-.87,1.57-1.91,3.03-3.09,4.36ZM48.18,34.1c-.96.83-1.6,1.38-3.1,1.38-1.28,0-1.7-.37-2.53-1.12-1.11-.99-2.62-2.36-6.07-2.36s-4.78,1.35-5.77,2.34c-.75.75-1.13,1.13-2.72,1.13-1.73,0-2.31-.52-3.19-1.3-1.03-.92-2.43-2.17-5.35-2.17s-4.3,1.23-5.33,2.14c-.92.81-1.53,1.34-3.39,1.34-1.7,0-2.13-.4-2.9-1.14-.86-.81-1.98-1.88-4.43-2.19-.28-1.3-.46-2.64-.52-4.01,1.22.13,1.67.56,2.33,1.18.97.92,2.3,2.19,5.52,2.19s4.8-1.32,5.9-2.28c.88-.77,1.36-1.19,2.82-1.19s1.95.43,2.81,1.2c1.07.96,2.54,2.27,5.73,2.27s4.46-1.3,5.41-2.25c.76-.76,1.22-1.23,3.07-1.23,1.99,0,2.64.58,3.53,1.38.98.88,2.33,2.1,5.08,2.1,2.92,0,4.46-1.33,5.59-2.31.15-.13.29-.24.41-.35-.09,1.25-.28,2.47-.56,3.65-.98.42-1.71,1.05-2.35,1.6Z"/>
  <polygon points="29.89 24.18 29.89 13.97 33.42 13.97 27.17 4.14 21.21 14.16 24.43 14.16 24.43 24.18 29.89 24.18"/>
</svg>