<?xml version="1.0" encoding="UTF-8"?>
<svg id="Capa_1" data-name="Capa 1" xmlns="http://www.w3.org/2000/svg" viewBox="0 0 54 54">
  <defs>
    <style>
      .cls-1 {
        fill: #fff;
      }
    </style>
  </defs>
  <path d="M27,0C12.09,0,0,12.09,0,27s12.09,27,27,27,27-12.09,27-27S41.91,0,27,0ZM27,51.15c-13.34,0-24.15-10.81-24.15-24.15S13.66,2.85,27,2.85s24.15,10.81,24.15,24.15-10.81,24.15-24.15,24.15Z"/>
  <g>
    <path d="M27.12,24.85c0,2.41,0,4.83,0,7.24,0,.18.09.4.21.53,1.87,2.05,2.48,4.42,1.59,7.05-.89,2.63-2.8,4.2-5.56,4.64-2.92.46-5.8-1.06-7.15-3.7-1.34-2.62-.86-5.83,1.19-7.93.17-.18.24-.35.24-.6,0-4.72,0-9.45,0-14.17,0-2.3,1.45-4.17,3.62-4.71,2.94-.73,5.83,1.49,5.85,4.52.02,2.38,0,4.76,0,7.14ZM21.3,26.31c0,2.58,0,5.17,0,7.75,0,.22-.06.33-.27.43-1.36.62-2.12,2.05-1.88,3.49.25,1.53,1.55,2.7,3.08,2.76,1.56.06,2.95-.95,3.33-2.44.39-1.53-.31-3.09-1.74-3.77-.27-.13-.34-.28-.34-.56,0-5.05,0-10.1,0-15.15,0-.16,0-.32-.03-.48-.1-.57-.57-.93-1.15-.89-.61.04-1,.5-1.01,1.19,0,2.56,0,5.12,0,7.68Z"/>
    <path d="M32.12,21.07c-.38,0-.72,0-1.06,0-.45,0-.79-.2-1-.6-.21-.4-.16-.8.1-1.16,1.45-1.94,2.9-3.88,4.36-5.81.47-.62,1.28-.61,1.75,0,1.46,1.92,2.9,3.85,4.34,5.78.28.37.33.77.11,1.19-.21.4-.56.58-1,.59-.34,0-.68,0-1.05,0,0,.16,0,.3,0,.43,0,2.83,0,5.67,0,8.5,0,.85-.41,1.26-1.25,1.26-1.33,0-2.66,0-3.99,0-.91,0-1.31-.4-1.32-1.31,0-2.81,0-5.62,0-8.43,0-.14,0-.27,0-.46Z"/>
    <path class="cls-1" d="M21.3,26.31c0-2.56,0-5.12,0-7.68,0-.69.4-1.15,1.01-1.19.58-.03,1.05.32,1.15.89.03.16.03.32.03.48,0,5.05,0,10.1,0,15.15,0,.29.07.43.34.56,1.42.68,2.13,2.24,1.74,3.77-.38,1.49-1.77,2.51-3.33,2.44-1.52-.06-2.82-1.23-3.08-2.76-.24-1.44.52-2.87,1.88-3.49.21-.1.27-.21.27-.43,0-2.58,0-5.17,0-7.75ZM21.3,37.48c0,.6.5,1.08,1.09,1.08.59,0,1.09-.5,1.09-1.09,0-.6-.51-1.11-1.12-1.09-.6.01-1.07.5-1.06,1.11Z"/>
    <path d="M21.3,37.48c0-.6.46-1.09,1.06-1.11.61-.01,1.12.49,1.12,1.09,0,.59-.5,1.09-1.09,1.09-.59,0-1.09-.48-1.09-1.08Z"/>
  </g>
</svg>