<?xml version="1.0" encoding="UTF-8"?>
<svg id="Capa_1" data-name="Capa 1" xmlns="http://www.w3.org/2000/svg" viewBox="0 0 54 54">
  <circle cx="27" cy="27" r="27" fill="#ffffff"/>
  <path d="M27,0C12.09,0,0,12.09,0,27s12.09,27,27,27,27-12.09,27-27S41.91,0,27,0ZM27,51.15c-13.34,0-24.15-10.81-24.15-24.15S13.66,2.85,27,2.85s24.15,10.81,24.15,24.15-10.81,24.15-24.15,24.15Z"/>
  <path d="M29.57,17.38c-.73-.2-1.5-.28-2.3-.43.02-.1.03-.2.05-.29.76-2.67,1.53-5.35,2.28-8.02.06-.21.03-.53-.09-.68-.08-.1-.46-.06-.63.04-3.36,1.98-6.23,4.49-8.37,7.78-2.26,3.47-3.56,7.26-3.5,11.44.06,4.56,3.27,8.49,7.72,9.52.65.15,1.31.22,1.98.33-.02.11-.03.21-.06.3-.76,2.67-1.53,5.35-2.28,8.02-.06.21.04.47.07.7.24-.03.51.01.7-.09.59-.33,1.15-.69,1.7-1.08,5.82-4.09,9.41-9.52,10.11-16.72.48-4.98-2.55-9.5-7.38-10.83Z"/>
</svg>