<?xml version="1.0" encoding="UTF-8"?>
<svg id="Capa_1" data-name="Capa 1" xmlns="http://www.w3.org/2000/svg" viewBox="0 0 54 54">
  <defs>
    <style>
      .cls-1 {
        fill: #fff;
      }
    </style>
  </defs>
  <path d="M27,0C12.09,0,0,12.09,0,27s12.09,27,27,27,27-12.09,27-27S41.91,0,27,0ZM27,51.15c-13.34,0-24.15-10.81-24.15-24.15S13.66,2.85,27,2.85s24.15,10.81,24.15,24.15-10.81,24.15-24.15,24.15Z"/>
  <g>
    <path d="M27.27,38.93c-5.96,0-11.92,0-17.89,0-.86,0-1.07-.25-.91-1.11.29-1.56.6-3.12.88-4.68.08-.43.29-.69.67-.89.9-.46,1.79-.94,2.67-1.44.17-.1.34-.3.4-.49.32-.94.61-1.9.88-2.86.11-.39.33-.63.72-.75.51-.16,1-.37,1.51-.53.27-.08.4-.24.48-.51.83-2.84,1.68-5.68,2.51-8.52.11-.37.29-.64.62-.86,1-.66,1.97-1.35,2.97-2.01.26-.17.35-.35.33-.65-.02-.52,0-1.04,0-1.56,0-.43.17-.71.6-.85.6-.19,1.2-.4,1.79-.61.42-.15.73-.04.97.34.37.58.77,1.14,1.1,1.74.13.23.14.55.12.83-.02.27-.13.55-.24.8-.4.92-.37,1.84-.19,2.83.2,1.09.58,1.95,1.44,2.68.97.83,1.85,1.77,2.74,2.68.17.18.3.44.35.68.11.55.17,1.11.22,1.67.02.24.1.33.34.38,1.45.31,2.9.66,4.36.97.42.09.62.32.72.72.22.97.47,1.94.69,2.91.06.27.17.46.45.55,1.06.31,1.6,1.05,1.87,2.1.2.81.56,1.59.83,2.38.08.24.21.35.46.41,1.1.29,2.19.61,3.29.9.37.1.62.29.74.67.12.37.28.74.4,1.11.16.51-.11.9-.64.93-.14,0-.28,0-.42,0-5.93,0-11.87,0-17.8,0ZM23.92,21.77c.35-1.19.69-2.34,1.02-3.5.15-.52.01-.89-.37-1.02-.42-.14-.75.09-.91.62-.38,1.26-.75,2.53-1.12,3.79-.16.55-.09.73.4,1.06.68.45,1.37.89,2.03,1.37.19.14.37.38.44.61.29.97.53,1.95.79,2.92.13.48.45.7.86.59.4-.1.56-.45.43-.94-.29-1.13-.57-2.26-.9-3.37-.08-.26-.28-.52-.5-.68-.69-.5-1.42-.96-2.16-1.46ZM20.27,29c-.65.25-1.26.5-1.88.73-.32.12-.5.34-.55.68-.12.82-.27,1.63-.4,2.45-.08.48.14.83.54.9.39.07.71-.2.8-.68.11-.64.2-1.28.33-1.91.03-.14.17-.32.3-.38.59-.26,1.2-.48,1.79-.72.44-.18.58-.44.49-.89-.29-1.39-.58-2.77-.87-4.16-.11-.51-.44-.77-.84-.67-.41.1-.58.45-.47.97.25,1.21.5,2.41.77,3.68ZM32.1,27.9c-.48.01-.77.44-.63.93.15.51.31,1.02.47,1.53.38,1.18.19,1.33,1.68,1.28.26,0,.37.1.44.33.13.43.28.85.43,1.27.16.43.51.63.88.5.37-.13.53-.5.39-.93-.14-.44-.3-.87-.45-1.31-.43-1.28-.35-1.23-1.66-1.2-.26,0-.37-.09-.44-.33-.14-.5-.3-.99-.45-1.49-.1-.35-.32-.55-.68-.57Z"/>
    <path d="M43.22,30.06c-.7-.09-1.28-.14-1.84-.26-.18-.04-.39-.22-.48-.4-.29-.59-.55-1.2-.79-1.81-.07-.18-.07-.42,0-.6.2-.52.46-1.02.69-1.53.13-.28.35-.38.65-.32.69.15,1.38.27,2.05.44.2.05.41.24.51.42.28.5.53,1.03.72,1.56.07.2.05.51-.06.69-.31.52-.66,1.01-1.03,1.48-.12.16-.34.25-.43.31Z"/>
    <path d="M32.79,14.51c-.18.34.07.5.4.65.36.17.54.44.37.85-.03.08-.05.16-.05.25-.03.9-.68,1.32-1.34,1.74-.01,0-.02.01-.04.02-.43.2-1.81-.4-2.04-.82-.55-.98-.16-1.91.08-2.85.07-.27.99-.7,1.38-.66.28.03.55.1.83.16.31.07.45.27.41.65Z"/>
    <path d="M33.9,22.53c0-.14.01-.28,0-.42-.03-.4.13-.65.5-.82,1.23-.56.79-.6,2.07.03.18.09.35.18.52.27.42.23.43.46.21.89-.45.89-1.25,1.24-2.1,1.53-.42.14-1.16-.4-1.19-.86-.02-.21,0-.42,0-.63,0,0,0,0,0,0Z"/>
    <path class="cls-1" d="M23.92,21.77c.75.5,1.47.95,2.16,1.46.22.16.42.42.5.68.33,1.12.61,2.25.9,3.37.13.49-.04.84-.43.94-.4.11-.73-.11-.86-.59-.27-.97-.51-1.96-.79-2.92-.07-.23-.24-.47-.44-.61-.66-.48-1.35-.91-2.03-1.37-.49-.33-.56-.51-.4-1.06.37-1.27.74-2.53,1.12-3.79.16-.53.49-.76.91-.62.39.13.52.49.37,1.02-.34,1.16-.68,2.31-1.02,3.5Z"/>
    <path class="cls-1" d="M20.27,29c-.26-1.26-.51-2.47-.77-3.68-.11-.52.06-.87.47-.97.4-.1.73.16.84.67.29,1.39.59,2.77.87,4.16.09.45-.04.71-.49.89-.6.25-1.2.46-1.79.72-.13.06-.27.23-.3.38-.13.63-.22,1.27-.33,1.91-.08.48-.4.75-.8.68-.4-.07-.61-.42-.54-.9.13-.82.27-1.63.4-2.45.05-.34.23-.56.55-.68.61-.23,1.22-.48,1.88-.73Z"/>
    <path class="cls-1" d="M32.1,27.9c.35.03.57.23.68.57.15.5.31.99.45,1.49.07.24.17.34.44.33,1.31-.03,1.24-.07,1.66,1.2.15.44.31.87.45,1.31.14.44-.02.8-.39.93-.37.13-.72-.07-.88-.5-.15-.42-.31-.84-.43-1.27-.07-.24-.17-.34-.44-.33-1.49.05-1.3-.1-1.68-1.28-.16-.51-.33-1.01-.47-1.53-.14-.49.15-.92.63-.93Z"/>
  </g>
</svg>