<?xml version="1.0" encoding="UTF-8"?>
<svg id="Capa_1" data-name="Capa 1" xmlns="http://www.w3.org/2000/svg" viewBox="0 0 54 54">
  <defs>
    <style>
      .cls-1 {
        fill: #fff;
      }
    </style>
  </defs>
  <circle cx="27" cy="27" r="27" fill="#ffffff"/>
  <path d="M27,0C12.09,0,0,12.09,0,27s12.09,27,27,27,27-12.09,27-27S41.91,0,27,0ZM27,51.15c-13.34,0-24.15-10.81-24.15-24.15S13.66,2.85,27,2.85s24.15,10.81,24.15,24.15-10.81,24.15-24.15,24.15Z"/>
  <g>
    <path d="M28.1,24.85c0,2.43,0,4.85,0,7.28,0,.16.08.35.19.47,1.93,2.1,2.53,4.52,1.56,7.2-.96,2.66-2.95,4.2-5.76,4.54-4.27.53-8-3.14-7.64-7.41.14-1.68.81-3.11,1.96-4.33.12-.13.19-.36.19-.54.01-4.73,0-9.45,0-14.18,0-2.31,1.47-4.19,3.66-4.71,2.91-.7,5.79,1.51,5.82,4.5.02,2.39,0,4.78,0,7.17h0ZM22.28,32.14c0,.6-.02,1.21,0,1.81.01.29-.07.43-.34.56-1.39.65-2.11,2.16-1.77,3.66.33,1.47,1.64,2.54,3.14,2.56,1.56.02,2.88-1.02,3.25-2.55.35-1.46-.38-3-1.77-3.67-.23-.11-.34-.21-.34-.5.02-1.26.02-2.53,0-3.79,0-.67-.49-1.16-1.1-1.16-.62,0-1.08.49-1.08,1.16,0,.64,0,1.27,0,1.91Z"/>
    <path d="M33.1,23.25c0-.17,0-.3,0-.44,0-2.82,0-5.65,0-8.47,0-.89.4-1.29,1.29-1.29,1.34,0,2.69,0,4.03,0,.82,0,1.24.42,1.24,1.24,0,2.83,0,5.67,0,8.5,0,.13,0,.27,0,.45.35,0,.67,0,1,0,.47,0,.85.17,1.07.6.22.43.14.83-.14,1.21-1.43,1.9-2.85,3.81-4.28,5.71-.52.68-1.32.68-1.84-.01-1.43-1.9-2.86-3.8-4.28-5.71-.28-.38-.35-.79-.13-1.21.22-.41.58-.59,1.04-.59.32,0,.64,0,1.01,0Z"/>
    <path class="cls-1" d="M22.28,32.14c0-.64,0-1.27,0-1.91,0-.67.47-1.16,1.08-1.16.61,0,1.09.49,1.1,1.16.01,1.26.02,2.53,0,3.79,0,.28.11.39.34.5,1.39.67,2.12,2.2,1.77,3.67-.37,1.53-1.69,2.57-3.25,2.55-1.5-.02-2.82-1.09-3.14-2.56-.33-1.5.39-3.01,1.77-3.66.27-.13.35-.28.34-.56-.02-.6,0-1.21,0-1.81ZM22.28,37.45c0,.6.47,1.09,1.07,1.1.61.01,1.12-.5,1.11-1.1,0-.59-.5-1.08-1.09-1.09-.6,0-1.08.48-1.09,1.08Z"/>
    <path d="M22.28,37.45c0-.6.49-1.08,1.09-1.08.59,0,1.09.5,1.09,1.09,0,.6-.51,1.11-1.11,1.1-.59,0-1.07-.5-1.07-1.1Z"/>
  </g>
</svg>