<?xml version="1.0" encoding="UTF-8"?>
<svg id="Capa_1" data-name="Capa 1" xmlns="http://www.w3.org/2000/svg" viewBox="0 0 54 54">
  <defs>
    <style>
      .cls-1 {
        fill: #fff;
      }
    </style>
  </defs>
  <path d="M27,0C12.09,0,0,12.09,0,27s12.09,27,27,27,27-12.09,27-27S41.91,0,27,0ZM49.9,34.69c-.94.41-1.63,1-2.28,1.55-1.02.88-1.83,1.57-3.58,1.57s-2.55-.69-3.58-1.57c-1.13-.97-2.42-2.06-4.92-2.06s-3.79,1.1-4.92,2.06c-1.02.88-1.83,1.57-3.58,1.57s-2.55-.69-3.58-1.57c-1.13-.97-2.42-2.06-4.92-2.06s-3.79,1.1-4.92,2.06c-1.02.88-1.83,1.57-3.57,1.57s-2.55-.69-3.58-1.57c-.67-.57-1.4-1.19-2.4-1.6-.39-1.16-.69-2.36-.9-3.59.75.28,1.31.75,1.94,1.3,1.13.97,2.42,2.06,4.92,2.06s3.79-1.1,4.92-2.06c.28-.24.55-.47.83-.67.72-.53,1.49-.89,2.75-.89,1.71,0,2.52.67,3.52,1.52.02.01.03.03.05.04,1.13.97,2.42,2.06,4.92,2.06s3.79-1.1,4.92-2.06c.02-.01.03-.03.05-.04,1-.85,1.81-1.52,3.52-1.52,1.06,0,1.77.26,2.4.65.4.26.77.57,1.17.91,1.13.97,2.42,2.06,4.92,2.06s3.79-1.1,4.92-2.06c.61-.52,1.14-.97,1.83-1.26-.21,1.23-.51,2.43-.9,3.59ZM47.62,30.78c-1.02.88-1.83,1.57-3.58,1.57s-2.55-.69-3.58-1.57c-.7-.6-1.46-1.24-2.52-1.65v-10.47h3.38l-14.45-10.75-14.99,10.75h3.92v10.62c-.89.41-1.56.97-2.18,1.5-1.02.88-1.83,1.57-3.57,1.57s-2.55-.69-3.58-1.57c-.91-.77-1.91-1.63-3.56-1.94-.05-.61-.07-1.22-.07-1.84C2.85,13.66,13.66,2.85,27,2.85s24.15,10.81,24.15,24.15c0,.63-.02,1.25-.07,1.86-1.59.33-2.57,1.16-3.46,1.92Z"/>
  <rect class="cls-1" x="29.19" y="20" width="5.36" height="5.36"/>
  <rect class="cls-1" x="19.16" y="20" width="5.36" height="5.36"/>
  <polygon class="cls-1" points="26.86 10.02 20.77 14.84 33.06 14.84 26.86 10.02"/>
  <path class="cls-1" d="M27.05,32.35c.22,0,.43-.01.62-.03.61-.07,1.09-.23,1.52-.47v-2.56h-4.67v2.33c.53.36,1.11.61,1.9.7.19.02.4.03.62.03Z"/>
</svg>