<?xml version="1.0" encoding="UTF-8"?>
<svg id="Capa_1" data-name="Capa 1" xmlns="http://www.w3.org/2000/svg" viewBox="0 0 54 54">
  <circle cx="27" cy="27" r="27" fill="#ffffff"/>
  <path d="M27,0C12.09,0,0,12.09,0,27s12.09,27,27,27,27-12.09,27-27S41.91,0,27,0ZM27,51.15c-13.34,0-24.15-10.81-24.15-24.15S13.66,2.85,27,2.85s24.15,10.81,24.15,24.15-10.81,24.15-24.15,24.15Z"/>
  <g>
    <g>
      <path d="M18.46,36.9c-.02.08-.04.23-.1.35-.3.63-.6,1.27-.93,1.88-.28.51-.79.66-1.27.41-.44-.22-.63-.73-.41-1.23.29-.65.62-1.3.96-1.93.23-.41.61-.59,1.08-.46.43.13.67.44.68.97Z"/>
      <path d="M17.02,31.13c-.04.14-.07.31-.14.46-.29.6-.58,1.19-.89,1.78-.28.52-.77.69-1.25.48-.47-.21-.69-.74-.46-1.26.29-.66.62-1.3.97-1.92.23-.4.59-.6,1.08-.45.45.13.64.46.7.92Z"/>
      <path d="M21.63,30.15c.75.02,1.25.63,1.02,1.19-.3.75-.67,1.47-1.07,2.17-.25.44-.71.52-1.16.3-.44-.21-.65-.62-.47-1.05.32-.78.71-1.53,1.14-2.26.12-.2.44-.29.56-.36Z"/>
      <path d="M24.14,36.91c-.03.09-.06.28-.13.44-.28.58-.56,1.16-.86,1.73-.3.56-.78.73-1.29.48-.46-.23-.65-.74-.41-1.27.3-.65.62-1.29.97-1.92.23-.42.63-.56,1.09-.42.41.13.62.44.63.97Z"/>
      <path d="M36.09,36.91c-.03.09-.06.28-.13.44-.28.58-.56,1.16-.86,1.73-.3.56-.78.73-1.29.48-.46-.23-.65-.74-.41-1.27.3-.65.62-1.29.97-1.92.23-.42.63-.56,1.09-.42.41.13.62.44.63.97Z"/>
      <path d="M40.06,30.15c.75.02,1.25.63,1.02,1.19-.3.75-.67,1.47-1.07,2.17-.25.44-.71.52-1.16.3-.44-.21-.65-.62-.47-1.05.32-.78.71-1.53,1.14-2.26.12-.2.44-.29.56-.36Z"/>
      <path d="M41.16,36.91c-.03.09-.06.28-.13.44-.28.58-.56,1.16-.86,1.73-.3.56-.78.73-1.29.48-.46-.23-.65-.74-.41-1.27.3-.65.62-1.29.97-1.92.23-.42.63-.56,1.09-.42.41.13.62.44.63.97Z"/>
      <path d="M20.27,42.58c-.03.09-.06.28-.13.44-.28.58-.56,1.16-.86,1.73-.3.56-.78.73-1.29.48-.46-.23-.65-.74-.41-1.27.3-.65.62-1.29.97-1.92.23-.42.63-.56,1.09-.42.41.13.62.44.63.97Z"/>
      <path d="M25.55,42.58c-.02.08-.04.23-.1.35-.3.63-.6,1.27-.93,1.88-.28.51-.79.66-1.27.41-.44-.22-.63-.73-.41-1.23.29-.65.62-1.3.96-1.93.23-.41.61-.59,1.08-.46.43.13.67.44.68.97Z"/>
      <path d="M32.15,42.58c-.03.09-.06.28-.13.44-.28.58-.56,1.16-.86,1.73-.3.56-.78.73-1.29.48-.46-.23-.65-.74-.41-1.27.3-.65.62-1.29.97-1.92.23-.42.63-.56,1.09-.42.41.13.62.44.63.97Z"/>
      <path d="M37.81,42.58c-.03.09-.06.28-.13.44-.28.58-.56,1.16-.86,1.73-.3.56-.78.73-1.29.48-.46-.23-.65-.74-.41-1.27.3-.65.62-1.29.97-1.92.23-.42.63-.56,1.09-.42.41.13.62.44.63.97Z"/>
    </g>
    <path d="M13.06,20.51c.07-1.27.42-2.45,1.22-3.46,1.28-1.61,2.96-2.42,5.01-2.41.46,0,.7-.1.9-.57,1.53-3.53,5.24-5.71,9.08-5.38,3.42.3,5.96,1.94,7.61,4.96.11.19.36.39.57.43,2.12.42,3.52,1.92,3.74,4.08.04.38.25.49.54.62,1.89.84,3.11,2.88,2.93,4.91-.19,2.27-1.61,4.01-3.74,4.53-.44.11-.92.11-1.38.11-8.87,0-17.74,0-26.6,0-1.89,0-3.54-1.61-3.63-3.51-.1-2.33,1.2-3.91,3.51-4.25.07-.01.14-.04.23-.06Z"/>
    <path d="M36.87,30.63c-.15-.3-.42-.34-.73-.34-1.38,0-2.76,0-4.14,0h-.42c.06-.17.09-.3.14-.42.49-1.35.98-2.71,1.46-4.06.24-.66-.02-1.02-.72-1.02-1.49,0-2.98,0-4.47,0-.43,0-.68.16-.85.56-1.16,2.73-2.33,5.44-3.49,8.17-.29.67-.05,1.04.68,1.04,1.21,0,2.43,0,3.64,0h.4c-.02.1-.02.14-.03.19-.57,2.48-1.15,4.96-1.72,7.44-.1.42,0,.7.27.84.3.16.59.07.86-.28,2.98-3.77,5.96-7.55,8.94-11.33.19-.24.31-.49.17-.78Z"/>
  </g>
</svg>