<?xml version="1.0" encoding="UTF-8"?>
<svg id="Capa_1" data-name="Capa 1" xmlns="http://www.w3.org/2000/svg" viewBox="0 0 54 54">
  <defs>
    <style>
      .cls-1 {
        fill: #fff;
      }
    </style>
  </defs>
  <circle cx="27" cy="27" r="27" fill="#ffffff"/>
  <path d="M27,0C12.09,0,0,12.09,0,27s12.09,27,27,27,27-12.09,27-27S41.91,0,27,0ZM27,51.15c-13.34,0-24.15-10.81-24.15-24.15S13.66,2.85,27,2.85s24.15,10.81,24.15,24.15-10.81,24.15-24.15,24.15Z"/>
  <g>
    <path d="M26.87,40.17c-7.3-.07-13.09-5.98-13.03-13.32.05-7.21,6.11-13.12,13.36-13.03,7.25.09,13.04,6.07,12.97,13.41-.06,7.18-6.05,13.01-13.3,12.94Z"/>
    <path class="cls-1" d="M26.99,20.05c-3.87.01-7.01,3.17-6.98,7.01.03,3.85,3.21,6.96,7.06,6.93,3.79-.03,6.91-3.16,6.92-6.96.01-3.85-3.14-6.99-7.01-6.98Z"/>
    <path class="cls-1" d="M26.99,20.05c3.86-.01,7.02,3.13,7.01,6.98-.01,3.8-3.13,6.93-6.92,6.96-3.86.03-7.03-3.08-7.06-6.93-.03-3.84,3.11-7,6.98-7.01Z"/>
  </g>
</svg>