<?xml version="1.0" encoding="UTF-8"?>
<svg id="Capa_1" data-name="Capa 1" xmlns="http://www.w3.org/2000/svg" viewBox="0 0 54 54">
  <defs>
    <style>
      .cls-1 {
        fill: #fff;
      }
    </style>
  </defs>
  <circle cx="27" cy="27" r="27" fill="#ffffff"/>
  <path d="M27,0C12.09,0,0,12.09,0,27s12.09,27,27,27,27-12.09,27-27S41.91,0,27,0ZM27,51.15c-13.34,0-24.15-10.81-24.15-24.15S13.66,2.85,27,2.85s24.15,10.81,24.15,24.15-10.81,24.15-24.15,24.15Z"/>
  <g>
    <path d="M27.27,16.95c.8.14,1.56.22,2.3.43,4.82,1.33,7.86,5.84,7.38,10.83-.69,7.2-4.29,12.63-10.11,16.72-.55.39-1.12.75-1.7,1.08-.19.11-.47.07-.7.09-.03-.24-.13-.49-.07-.7.75-2.68,1.52-5.35,2.28-8.02.03-.09.04-.19.06-.3-.67-.11-1.33-.18-1.98-.33-4.44-1.02-7.66-4.95-7.72-9.52-.06-4.18,1.24-7.97,3.5-11.44,2.14-3.29,5.01-5.8,8.37-7.78.17-.1.55-.14.63-.04.13.15.15.47.09.68-.75,2.68-1.52,5.35-2.28,8.02-.03.09-.04.19-.05.29ZM26.93,32.62c3.07.03,5.61-2.44,5.64-5.48.03-3.11-2.43-5.64-5.5-5.68-3.07-.04-5.64,2.47-5.66,5.52-.02,3.11,2.43,5.61,5.52,5.64Z"/>
    <path class="cls-1" d="M26.93,32.62c-3.09-.03-5.54-2.53-5.52-5.64.02-3.06,2.59-5.56,5.66-5.52,3.07.04,5.52,2.57,5.5,5.68-.03,3.04-2.56,5.51-5.64,5.48Z"/>
  </g>
</svg>