<?xml version="1.0" encoding="UTF-8"?>
<svg id="Capa_1" data-name="Capa 1" xmlns="http://www.w3.org/2000/svg" viewBox="0 0 54 54">
  <path d="M27,0C12.09,0,0,12.09,0,27s12.09,27,27,27,27-12.09,27-27S41.91,0,27,0ZM27,51.15c-13.34,0-24.15-10.81-24.15-24.15S13.66,2.85,27,2.85s24.15,10.81,24.15,24.15-10.81,24.15-24.15,24.15Z"/>
  <g>
    <path d="M8.77,31.86c.04-.07.08-.14.12-.21.37-.73,1.23-.92,1.86-.41.39.31.75.65,1.15.96,2.07,1.6,5.11,1.53,7.12-.16.86-.73,1.7-1.51,2.75-1.94,2.85-1.15,5.58-1,8.12.85.48.35.94.72,1.38,1.12,1.7,1.54,5.15,1.83,7.2.03.3-.27.62-.51.93-.78,1.23-1.07,2.66-1.67,4.27-1.87,1.06-.13,1.8.64,1.5,1.56-.17.5-.53.8-1.04.84-1.28.11-2.37.61-3.33,1.46-.92.81-1.87,1.6-3.05,1.98-2.88.93-5.57.58-7.98-1.33-.38-.3-.76-.61-1.12-.93-1.83-1.6-5.21-1.62-7.08.04-.29.26-.6.5-.9.75-2.94,2.52-7.3,2.62-10.33.22-.37-.29-.75-.59-1.08-.92-.2-.19-.32-.46-.48-.69,0-.19,0-.38,0-.57Z"/>
    <path d="M8.77,38.2c.14-.36.33-.69.71-.85.47-.2.91-.14,1.3.18.35.29.69.58,1.03.88,1.79,1.54,5.08,1.68,7,.06.4-.34.8-.66,1.2-1,2.84-2.37,7.3-2.4,10.17-.05.39.32.79.64,1.18.98,1.87,1.64,5.23,1.65,7.1,0,.38-.34.78-.66,1.17-.98,1.22-1,2.63-1.54,4.19-1.69.74-.07,1.34.41,1.4,1.1.06.68-.42,1.24-1.16,1.32-1.22.12-2.28.58-3.2,1.4-.92.81-1.87,1.61-3.04,2.01-2.91.98-5.63.66-8.06-1.32-.36-.29-.71-.59-1.07-.88-2.03-1.65-5.17-1.63-7.18.04-.53.44-1.07.87-1.61,1.28-2.61,2-6.91,1.8-9.38-.18-.43-.35-.88-.69-1.28-1.08-.2-.19-.31-.46-.47-.7,0-.17,0-.33,0-.5Z"/>
    <g>
      <path d="M36.88,20.39c.21.06.43.11.62.2.92.41,1.43,1.43,1.22,2.4-.22,1-1.09,1.71-2.09,1.71-2.54,0-5.09,0-7.63,0-.04,0-.08,0-.14,0v-.98c.06,0,.13,0,.19,0,2.46,0,4.93,0,7.39,0,.44,0,.83-.11,1.1-.49.38-.52.27-1.24-.24-1.62-.52-.39-1.24-.29-1.63.23-.04.05-.07.1-.1.16-.16.24-.44.31-.67.17-.23-.14-.31-.43-.17-.67.34-.58.84-.94,1.5-1.07.05,0,.09-.02.14-.03.17,0,.34,0,.5,0Z"/>
      <path d="M30.94,26.76v-.98c.07,0,.13,0,.2,0,3.03,0,6.06,0,9.09,0,.13,0,.26,0,.39-.04.29-.08.48-.34.49-.64,0-.29-.18-.57-.46-.67-.28-.1-.59,0-.78.23-.03.03-.05.07-.07.1-.16.24-.45.31-.69.16-.23-.14-.29-.43-.15-.68.54-.96,1.88-1.13,2.65-.33.47.49.61,1.2.34,1.82-.27.63-.88,1.03-1.58,1.02-3.07,0-6.15,0-9.22,0-.07,0-.14,0-.22,0Z"/>
      <path d="M29.42,27.58v.9c.05,0,.11,0,.16,0,2.5,0,5,0,7.51,0,.11,0,.22,0,.32.03.24.07.4.31.4.59,0,.27-.15.52-.38.61-.23.09-.49,0-.64-.21-.02-.03-.04-.06-.06-.1-.14-.22-.37-.28-.57-.15-.19.13-.24.39-.12.62.45.88,1.55,1.03,2.19.3.39-.44.5-1.1.28-1.66-.22-.58-.72-.94-1.3-.94-2.54,0-5.07,0-7.61,0-.06,0-.12,0-.19,0Z"/>
    </g>
    <path d="M12.82,31.6s-.3-20.22,14.08-20.74c11.63-.42,10.31,8.45,10.31,8.45,0,0-.48-3.68-5.72-3.61-9.79.13-8.85,14.51-3.51,15.48-1.38.36-6.27-.18-6.27-.18l-3.71,2.86-5.18.55v-2.82Z"/>
  </g>
</svg>